<svg width="6" height="27" viewBox="0 0 6 27" fill="none" xmlns="http://www.w3.org/2000/svg">
<path d="M3.088 5.792C2.384 5.792 1.776 5.536 1.264 5.024C0.784 4.512 0.544 3.888 0.544 3.152C0.544 2.416 0.784 1.808 1.264 1.328C1.776 0.815999 2.384 0.559999 3.088 0.559999C3.792 0.559999 4.4 0.815999 4.912 1.328C5.424 1.808 5.68 2.416 5.68 3.152C5.68 3.888 5.424 4.512 4.912 5.024C4.4 5.536 3.792 5.792 3.088 5.792ZM3.088 26.24C2.384 26.24 1.776 25.984 1.264 25.472C0.784 24.96 0.544 24.336 0.544 23.6C0.544 22.864 0.784 22.256 1.264 21.776C1.776 21.264 2.384 21.008 3.088 21.008C3.792 21.008 4.4 21.264 4.912 21.776C5.424 22.256 5.68 22.864 5.68 23.6C5.68 24.336 5.424 24.96 4.912 25.472C4.4 25.984 3.792 26.24 3.088 26.24Z" fill="#4E4D4D"/>
</svg>
