<svg width="35" height="36" viewBox="0 0 35 36" fill="none" xmlns="http://www.w3.org/2000/svg">
<path d="M21.35 18.1602L34.44 5.07191C34.804 4.71208 35 4.23184 35 3.7194C35 3.20696 34.804 2.7253 34.44 2.36548L33.292 1.21878C32.928 0.857554 32.4521 0.660156 31.9341 0.660156C31.4301 0.660156 30.954 0.857554 30.59 1.21878L17.5 14.3057L4.41003 1.21878C4.06003 0.857554 3.56992 0.660156 3.06592 0.660156C2.54792 0.660156 2.07196 0.857554 1.70796 1.21878L0.560034 2.36548C-0.181966 3.11174 -0.181966 4.32705 0.560034 5.07191L13.65 18.1602L0.560034 31.247C0.196034 31.6082 0 32.0885 0 32.6009C0 33.1134 0.196034 33.595 0.560034 33.9548L1.70796 35.1015C2.07196 35.4628 2.54792 35.6602 3.06592 35.6602C3.56992 35.6602 4.06003 35.4628 4.41003 35.1015L17.5 22.0147L30.59 35.1015C30.94 35.4628 31.4301 35.6602 31.9341 35.6602C32.4521 35.6602 32.928 35.4628 33.292 35.1015L34.44 33.9548C34.804 33.595 35 33.1134 35 32.6009C35 32.0885 34.804 31.6082 34.44 31.247L21.35 18.1602Z" fill="#3D3D3D"/>
</svg>
