<svg width="37" height="37" viewBox="0 0 37 37" fill="none" xmlns="http://www.w3.org/2000/svg">
<path d="M36.9035 13.6684C36.6613 12.9041 35.9967 12.3613 35.2106 12.289L24.5314 11.2998L20.3085 1.21724C19.9972 0.478314 19.288 0 18.5001 0C17.7123 0 17.0031 0.478314 16.6918 1.21897L12.4689 11.2998L1.78805 12.289C1.00327 12.363 0.340442 12.9041 0.0968223 13.6684C-0.146798 14.4326 0.0781908 15.2709 0.671856 15.7993L8.74406 23.021L6.36375 33.7169C6.18958 34.5034 6.48881 35.3163 7.12849 35.788C7.47232 36.0414 7.87459 36.1704 8.28025 36.1704C8.63001 36.1704 8.97695 36.0742 9.28832 35.8842L18.5001 30.2679L27.7086 35.8842C28.3824 36.2977 29.2318 36.26 29.8701 35.788C30.5101 35.3149 30.809 34.5016 30.6348 33.7169L28.2545 23.021L36.3267 15.8008C36.9204 15.2709 37.1471 14.4341 36.9035 13.6684Z" fill="#FFC107"/>
</svg>
